<svg xmlns="http://www.w3.org/2000/svg" xmlns:xlink="http://www.w3.org/1999/xlink" viewBox="0 0 678.12 280.84"><defs><style>.cls-1{fill:none;}.cls-2{fill:#fff;}.cls-3{fill:#231f20;}.cls-4{fill:#a3bc88;}.cls-5{clip-path:url(#clip-path);}</style><clipPath id="clip-path"><rect class="cls-1" x="0.99" width="172.19" height="280.48"/></clipPath></defs><title>Asset 4</title><g id="Layer_2" data-name="Layer 2"><g id="Layer_1-2" data-name="Layer 1"><rect class="cls-2" x="0.99" width="172.19" height="280.84"/><path class="cls-3" d="M.14,0V240.41H31.27V184.83a12.07,12.07,0,1,1,24.14,0v55.58h19V184.83a12.08,12.08,0,1,1,24.15,0v55.58h18.63V184.83a12.07,12.07,0,1,1,24.14,0v55.58h30.89V0Z"/><rect class="cls-3" y="249.72" width="172.08" height="30.76"/><rect class="cls-1" x="0.99" width="172.19" height="280.48"/><path class="cls-2" d="M12.65,259.76h2.46c1.68,0,2.41.78,2.41,2.38v.41c0,1.07-.33,1.74-1.05,2v0c.87.3,1.21,1.07,1.21,2.16v.89a2.2,2.2,0,0,1-2.47,2.46H12.65ZM14.92,264c.6,0,1-.27,1-1.1v-.58c0-.74-.25-1.06-.83-1.06h-.78V264Zm.29,4.66c.55,0,.84-.25.84-1v-.91c0-1-.31-1.25-1.05-1.25h-.72v3.18Z"/><path class="cls-2" d="M26.54,265.71l-2-5.95H26.3l1.11,3.8h0l1.11-3.8h1.59l-2,5.95v4.41H26.54Z"/><path class="cls-2" d="M46.43,267.66v-5.45c0-1.65.83-2.6,2.43-2.6s2.43.95,2.43,2.6v.89H49.75v-1c0-.74-.33-1-.85-1s-.84.28-.84,1v5.67c0,.74.32,1,.84,1s.85-.27.85-1v-2h-.82v-1.48h2.36v3.39c0,1.66-.83,2.61-2.43,2.61S46.43,269.32,46.43,267.66Z"/><path class="cls-2" d="M60.25,259.76h2.2l1.69,10.36H62.51l-.29-2.06v0H60.36l-.29,2H58.56ZM62,266.68l-.72-5.12h0l-.71,5.12Z"/><path class="cls-2" d="M71.57,259.76H74c1.68,0,2.41.78,2.41,2.38v.64a1.94,1.94,0,0,1-1.07,2v0c.82.25,1.08,1,1.08,2.19v1.82a3.13,3.13,0,0,0,.18,1.26H74.93a3.23,3.23,0,0,1-.14-1.27V267c0-1-.29-1.27-1-1.27H73.2v4.44H71.57Zm2.22,4.44c.61,0,1-.27,1-1.1v-.8c0-.74-.25-1.06-.83-1.06H73.2v3Z"/><path class="cls-2" d="M85.45,259.76h2.2l1.69,10.36H87.71l-.29-2.06v0H85.56l-.29,2H83.76Zm1.77,6.92-.72-5.12h0l-.71,5.12Z"/><path class="cls-2" d="M95.92,259.76h1.64l1.07,8h0l1.07-8h1.5l-1.57,10.36H97.49Z"/><path class="cls-2" d="M109.48,259.76h2.21l1.68,10.36h-1.63l-.29-2.06v0H109.6l-.3,2h-1.51Zm1.78,6.92-.73-5.12h0l-.71,5.12Z"/><path class="cls-2" d="M120.66,267.66v-5.45c0-1.65.83-2.6,2.43-2.6s2.43.95,2.43,2.6v.89H124v-1c0-.74-.33-1-.85-1s-.84.28-.84,1v5.67c0,.74.33,1,.84,1s.85-.27.85-1v-2h-.82v-1.48h2.36v3.39c0,1.66-.83,2.61-2.43,2.61S120.66,269.32,120.66,267.66Z"/><path class="cls-2" d="M133.22,259.76h1.62v8.88h2.68v1.48h-4.3Z"/><path class="cls-2" d="M145,259.76h1.63v10.36H145Z"/><path class="cls-2" d="M155.71,259.76h2.21l1.68,10.36H158l-.3-2.06v0h-1.85l-.29,2H154Zm1.78,6.92-.73-5.12h0l-.71,5.12Z"/><path class="cls-4" d="M22.2,65.88V83.07H14.39V40.88H22.2V58.07h9.38V40.88h7.81V83.07H31.58V65.88Z"/><g class="cls-5"><path class="cls-2" d="M72.9,70.57V40.88h7.81V70.57c0,3.13,1.57,4.69,4.69,4.69s4.69-1.56,4.69-4.69V40.88h7.82V70.57q0,12.51-12.51,12.5T72.9,70.57Z"/><path class="cls-2" d="M143.9,40.88q12.51,0,12.51,12.5A14.83,14.83,0,0,1,154.66,61q3.3,3.12,3.31,9.56,0,12.51-12.5,12.5H131.4V40.88Zm4.69,12.5q0-4.69-4.69-4.69h-4.68v9.38h4.68Q148.6,58.07,148.59,53.38Zm-9.37,12.5v9.38h6.25c3.12,0,4.69-1.56,4.69-4.69s-1.57-4.69-4.69-4.69Z"/><path class="cls-3" d="M259.24,124.69V275.87H287V227a10.59,10.59,0,1,1,21.17,0v48.92h16.67V227A10.59,10.59,0,1,1,346,227v48.92h16.34V227a10.59,10.59,0,1,1,21.17,0v48.92h26.91V124.69Z"/><path class="cls-2" d="M456.46,138v5h-11v6h9v5h-9v6h11v5H440.51V138Z"/><path class="cls-2" d="M468.32,138q8,0,8,8v11q0,8-8,8h-8V138Zm3,8c0-2-1-3-3-3h-3v16.95h3a2.64,2.64,0,0,0,3-3Z"/><path class="cls-2" d="M480.19,157V138h5V157a3,3,0,1,0,6,0V138h5V157q0,8-8,8T480.19,157Z"/><path class="cls-2" d="M516,138v5h-5.48v21.93h-5V143H500v-5Z"/><path class="cls-2" d="M529,160.94h-6.9l-1,4h-5.18l7-26.91h5.38l7,26.91H530Zm-5.6-5h4.3l-2.15-8.33Z"/><path class="cls-2" d="M543.05,164.92h-5V138h5Z"/><path class="cls-2" d="M551.89,149.61v15.31h-5V138h5.38l6.58,15.31V138h5v26.91h-5.39Z"/><path class="cls-2" d="M572.68,153v12h-5V138h6l5,19.22,5-19.22h6v26.91h-5V153l-4,12h-4Z"/><path class="cls-2" d="M609.42,138v5h-11v6h9v5h-9v6h11v5H593.47V138Z"/><path class="cls-2" d="M618.29,149.61v15.31h-5V138h5.38l6.58,15.31V138h5v26.91h-5.38Z"/><path class="cls-2" d="M650.05,138v5h-5.49v21.93h-5V143H634.1v-5Z"/><path class="cls-4" d="M447.91,199.69V216h-7.4V176h7.4v16.27h8.87V176h7.4V216h-7.4V199.69Z"/><path class="cls-2" d="M486.8,204.12V176h7.4v28.1q0,4.44,4.44,4.44c3,0,4.43-1.48,4.43-4.44V176h7.4v28.1q0,11.83-11.83,11.84T486.8,204.12Z"/><path class="cls-2" d="M544.92,176q11.83,0,11.83,11.83a14,14,0,0,1-1.65,7.22q3.14,3,3.13,9.05,0,11.83-11.83,11.84H533.08V176Zm4.44,11.83q0-4.44-4.44-4.44h-4.44v8.88h4.44Q549.36,192.29,549.36,187.85Zm-8.88,11.84v8.87h5.92q4.44,0,4.44-4.44t-4.44-4.43Z"/></g><path class="cls-2" d="M21.86,11.19v3.46h-7.6V18.8h6.22v3.46H14.26v4.15h7.6v3.46H10.8V11.19Z"/><g class="cls-5"><path class="cls-2" d="M30.89,11.19q5.53,0,5.54,5.54v7.6q0,5.54-5.54,5.54H25.36V11.19ZM33,16.73a1.84,1.84,0,0,0-2.08-2.08H28.82V26.41h2.07A1.84,1.84,0,0,0,33,24.33Z"/><path class="cls-2" d="M39.92,24.33V11.19h3.46V24.33a1.83,1.83,0,0,0,2.07,2.08,1.84,1.84,0,0,0,2.08-2.08V11.19H51V24.33q0,5.54-5.53,5.54T39.92,24.33Z"/><path class="cls-2" d="M65.54,11.19v3.46H61.73V29.87H58.28V14.65H54.47V11.19Z"/><path class="cls-2" d="M75.37,27.1H70.58l-.71,2.77h-3.6l4.84-18.68h3.74l4.84,18.68h-3.6Zm-3.89-3.46h3L73,17.86Z"/><path class="cls-2" d="M85.92,29.87H82.46V11.19h3.46Z"/><path class="cls-2" d="M92.84,19.24V29.87H89.38V11.19h3.73l4.57,10.62V11.19h3.46V29.87H97.4Z"/><path class="cls-2" d="M108.06,21.57v8.3H104.6V11.19h4.15l3.46,13.34,3.46-13.34h4.15V29.87h-3.46v-8.3l-2.77,8.3h-2.76Z"/><path class="cls-2" d="M134.34,11.19v3.46h-7.6V18.8H133v3.46h-6.22v4.15h7.6v3.46H123.28V11.19Z"/><path class="cls-2" d="M141.29,19.24V29.87h-3.46V11.19h3.74l4.56,10.62V11.19h3.46V29.87h-3.73Z"/><path class="cls-2" d="M164.12,11.19v3.46h-3.8V29.87h-3.46V14.65h-3.81V11.19Z"/><path class="cls-2" d="M540,250.87h2.45c1.69,0,2.42.79,2.42,2.39v.41c0,1.07-.33,1.73-1.06,2v0c.88.29,1.22,1.06,1.22,2.16v.89a2.19,2.19,0,0,1-2.47,2.45H540Zm2.26,4.22c.61,0,1-.26,1-1.09v-.58c0-.74-.26-1.07-.83-1.07h-.79v2.74Zm.3,4.66c.55,0,.84-.25.84-1v-.9c0-1-.31-1.26-1.05-1.26h-.73v3.18Z"/><path class="cls-2" d="M553.18,256.82l-2-5.95H553l1.11,3.81h0l1.11-3.81h1.58l-2,5.95v4.41h-1.63Z"/><path class="cls-2" d="M571.6,258.78v-5.45c0-1.66.83-2.61,2.42-2.61s2.43.95,2.43,2.61v.89h-1.54v-1c0-.74-.32-1-.84-1s-.85.29-.85,1v5.67c0,.74.33,1,.85,1s.84-.26.84-1v-2h-.81v-1.48h2.35v3.39c0,1.66-.83,2.6-2.43,2.6S571.6,260.44,571.6,258.78Z"/><path class="cls-2" d="M584.67,250.87h2.21l1.68,10.36h-1.63l-.29-2.05v0h-1.85l-.29,2H583Zm1.78,6.93-.73-5.12h0L585,257.8Z"/><path class="cls-2" d="M595.26,250.87h2.41c1.69,0,2.42.79,2.42,2.39v.63a2,2,0,0,1-1.07,2.05v0c.81.25,1.08,1,1.08,2.19V260a3.05,3.05,0,0,0,.18,1.25h-1.66a3.08,3.08,0,0,1-.15-1.27v-1.89c0-1-.28-1.28-1-1.28h-.56v4.44h-1.63Zm2.22,4.44c.61,0,1-.26,1-1.09v-.8c0-.74-.25-1.07-.83-1.07h-.74v3Z"/><path class="cls-2" d="M608.39,250.87h2.21l1.69,10.36h-1.63l-.3-2.05v0h-1.85l-.29,2h-1.51Zm1.78,6.93-.73-5.12h0l-.71,5.12Z"/><path class="cls-2" d="M618.13,250.87h1.64l1.07,8h0l1.07-8h1.5l-1.57,10.36H619.7Z"/><path class="cls-2" d="M631,250.87h2.2l1.69,10.36h-1.63l-.29-2.05v0h-1.85l-.3,2h-1.51Zm1.77,6.93-.72-5.12h0l-.71,5.12Z"/><path class="cls-2" d="M641.39,258.78v-5.45c0-1.66.83-2.61,2.43-2.61s2.43.95,2.43,2.61v.89h-1.54v-1c0-.74-.33-1-.85-1s-.84.29-.84,1v5.67c0,.74.33,1,.84,1s.85-.26.85-1v-2h-.82v-1.48h2.36v3.39c0,1.66-.83,2.6-2.43,2.6S641.39,260.44,641.39,258.78Z"/><path class="cls-2" d="M653.21,250.87h1.62v8.88h2.69v1.48h-4.31Z"/><path class="cls-2" d="M664.21,250.87h1.63v10.36h-1.63Z"/><path class="cls-2" d="M674.22,250.87h2.21l1.69,10.36h-1.63l-.3-2.05v0h-1.85l-.29,2h-1.51ZM676,257.8l-.73-5.12h0l-.72,5.12Z"/></g></g></g></svg>