<svg xmlns="http://www.w3.org/2000/svg" viewBox="0 0 319.61 152.44"><defs><style>.cls-1{fill:#1d1d1b;}.cls-2{fill:#fff;}.cls-3{fill:#8ec152;}</style></defs><g id="Layer_2" data-name="Layer 2"><g id="Livello_1" data-name="Livello 1"><rect class="cls-1" x="167.08" width="152.53" height="152.44"/><path class="cls-1" d="M0,0V152.44H28V103.1a10.68,10.68,0,0,1,21.35,0v49.34h16.8V103.1a10.68,10.68,0,0,1,21.35,0v49.34H104V103.1a10.68,10.68,0,0,1,21.35,0v49.34h27.13V0Z"/><path class="cls-2" d="M185.75,116.82a2.59,2.59,0,0,1,2.93,2.93h-1.83a1.1,1.1,0,0,0-2.2,0v4a1.1,1.1,0,0,0,2.2,0v-1.1h-1.1v-1.83h2.93v2.93a2.93,2.93,0,1,1-5.86,0v-4A2.59,2.59,0,0,1,185.75,116.82Z"/><path class="cls-2" d="M197.16,125.25h-2.53l-.38,1.46h-1.91l2.57-9.89h2l2.57,9.89h-1.91Zm-2.06-1.84h1.59l-.79-3.06Z"/><path class="cls-2" d="M206.41,116.82a2.59,2.59,0,0,1,2.93,2.93,2.84,2.84,0,0,1-.87,2.32l1.24,4.64h-1.83l-1.08-4h-1.49v4h-1.83v-9.89Zm1.1,2.93a1,1,0,0,0-1.1-1.1h-1.1v2.2h1.1A1,1,0,0,0,207.51,119.75Z"/><path class="cls-2" d="M218.56,125.25H216l-.38,1.46h-1.9l2.56-9.89h2l2.56,9.89h-1.9Zm-2.06-1.84h1.58l-.79-3.06Z"/><path class="cls-2" d="M226,126.71l-2.56-9.89h1.91l1.64,6.36,1.65-6.36h1.91L228,126.71Z"/><path class="cls-2" d="M237.9,125.25h-2.53l-.38,1.46h-1.91l2.57-9.89h2l2.57,9.89h-1.91Zm-2.06-1.84h1.59l-.8-3.06Z"/><path class="cls-2" d="M246.78,116.82a2.59,2.59,0,0,1,2.93,2.93h-1.83a1.1,1.1,0,1,0-2.2,0v4a1.1,1.1,0,0,0,2.2,0v-1.1h-1.1v-1.83h2.93v2.93a2.93,2.93,0,0,1-5.86,0v-4A2.59,2.59,0,0,1,246.78,116.82Z"/><path class="cls-2" d="M254.11,116.82h1.83v8.06h4v1.83h-5.86Z"/><path class="cls-2" d="M266.2,126.71h-1.83v-9.89h1.83Z"/><path class="cls-2" d="M275.05,125.25h-2.53l-.38,1.46h-1.91l2.57-9.89h2l2.57,9.89h-1.91ZM273,123.41h1.59l-.79-3.06Z"/><path class="cls-2" d="M283.2,126.71h-1.83v-1.83h1.83Z"/><path class="cls-2" d="M293.46,116.82v1.83h-4v2.2h3.3v1.83h-3.3v2.2h4v1.83H287.6v-9.89Z"/><path class="cls-2" d="M297.86,123.78v-7h1.83v7a1.1,1.1,0,1,0,2.2,0v-7h1.83v7a2.93,2.93,0,1,1-5.86,0Z"/><path class="cls-2" d="M191.65,23.35v2.73h-6v3.29h4.93V32.1h-4.93v3.29h6v2.73H182.9V23.35Z"/><path class="cls-2" d="M198.79,23.35q4.38,0,4.38,4.38v6q0,4.38-4.38,4.38h-4.38V23.35Zm1.64,4.38a1.45,1.45,0,0,0-1.64-1.65h-1.64v9.31h1.64a1.45,1.45,0,0,0,1.64-1.65Z"/><path class="cls-2" d="M205.93,33.74V23.35h2.74V33.74a1.64,1.64,0,1,0,3.28,0V23.35h2.74V33.74q0,4.38-4.38,4.38T205.93,33.74Z"/><path class="cls-2" d="M226.2,23.35v2.73h-3v12h-2.73v-12h-3V23.35Z"/><path class="cls-2" d="M234,35.93h-3.79l-.57,2.19h-2.84l3.83-14.77h2.95l3.83,14.77h-2.84ZM230.9,33.2h2.37l-1.18-4.58Z"/><path class="cls-2" d="M242.34,38.12h-2.73V23.35h2.73Z"/><path class="cls-2" d="M247.84,29.72v8.4h-2.73V23.35h2.95l3.61,8.4v-8.4h2.74V38.12h-3Z"/><path class="cls-2" d="M259.91,31.56v6.56h-2.74V23.35h3.28l2.74,10.55,2.74-10.55h3.28V38.12h-2.74V31.56l-2.19,6.56H262.1Z"/><path class="cls-2" d="M280.73,23.35v2.73h-6v3.29h4.92V32.1h-4.92v3.29h6v2.73H272V23.35Z"/><path class="cls-2" d="M286.23,29.72v8.4h-2.74V23.35h3l3.61,8.4v-8.4h2.73V38.12h-3Z"/><path class="cls-2" d="M304.31,23.35v2.73h-3v12h-2.73v-12h-3V23.35Z"/><path class="cls-3" d="M202.1,100.12h7.77V53.76H202.1V73.05H190.57V53.76H182.8v46.36h7.77V80.82H202.1Z"/><path class="cls-2" d="M229.06,53.76V86.59c0,9.1,4.43,13.53,13.53,13.53s13.53-4.43,13.53-13.53V53.76h-7.77V86.59c0,3.76-2,5.76-5.76,5.76s-5.76-2-5.76-5.76V53.76Z"/><path class="cls-2" d="M275.31,100.12H290.6c9.1,0,13.53-4.43,13.53-13.53,0-4.66-1.2-8.15-3.56-10.38l-.29-.27.2-.34a16.15,16.15,0,0,0,1.9-8.31c0-9.1-4.43-13.53-13.53-13.53H275.31Zm15.29-7.77h-7.52V80.82h7.52c3.77,0,5.76,2,5.76,5.77S294.37,92.35,290.6,92.35Zm-1.75-19.3h-5.77V61.53h5.77c3.77,0,5.76,2,5.76,5.76S292.62,73.05,288.85,73.05Z"/><path class="cls-2" d="M219.37,71.34a4.19,4.19,0,1,0,4.18,4.18A4.19,4.19,0,0,0,219.37,71.34Z"/><path class="cls-2" d="M266.24,71.34a4.19,4.19,0,1,0,4.19,4.18A4.19,4.19,0,0,0,266.24,71.34Z"/><rect class="cls-2" x="182.68" y="45.21" width="121.69" height="0.74"/><rect class="cls-2" x="182.68" y="107.76" width="121.69" height="0.74"/></g></g></svg>