<svg width="84" height="73" viewBox="0 0 84 73" fill="none" xmlns="http://www.w3.org/2000/svg">
<g clip-path="url(#clip0)">
<path d="M58.7999 28.7703C49.2999 19.3703 34.0999 19.4703 24.6999 28.8703C15.2999 38.3703 15.3999 53.5703 24.7999 62.9703C34.3999 72.3703 49.5999 72.3703 58.9999 62.8703C68.3999 53.4703 68.2999 38.1703 58.7999 28.7703Z" fill="white"/>
<g opacity="0.5">
<g opacity="0.5">
<g opacity="0.5">
<path opacity="0.5" d="M58.7999 28.7703C49.2999 19.3703 34.0999 19.4703 24.6999 28.8703C15.2999 38.3703 15.3999 53.5703 24.7999 62.9703C34.3999 72.3703 49.5999 72.3703 58.9999 62.8703C68.3999 53.4703 68.2999 38.1703 58.7999 28.7703ZM58.7999 28.7703C49.2999 19.3703 34.0999 19.4703 24.6999 28.8703C15.2999 38.3703 15.3999 53.5703 24.7999 62.9703C34.3999 72.3703 49.5999 72.3703 58.9999 62.8703C68.3999 53.4703 68.2999 38.1703 58.7999 28.7703ZM52.6999 56.6703C49.7999 59.5703 45.9999 61.1703 41.8999 61.1703C37.8999 61.1703 34.0999 59.5703 31.1999 56.7703C28.2999 53.8703 26.6999 50.0703 26.6999 46.0703C26.6999 41.9703 28.1999 38.1703 31.0999 35.2703C33.9999 32.3703 37.7999 30.7703 41.8999 30.7703C45.8999 30.7703 49.6999 32.3703 52.5999 35.1703C58.5999 41.0703 58.5999 50.6703 52.6999 56.6703Z" fill="#EC424A"/>
</g>
</g>
</g>
<path d="M41.9002 61.1704C37.9002 61.1704 34.1002 59.5704 31.2002 56.7704C28.3002 53.8704 26.7002 50.0704 26.7002 46.0704C26.7002 42.0704 28.2002 38.1704 31.1002 35.2704C34.0002 32.3704 37.8002 30.7704 41.9002 30.7704C45.9002 30.7704 49.7002 32.3704 52.6002 35.1704C58.6002 41.0704 58.6002 50.7704 52.7002 56.6704C49.8002 59.5704 46.0002 61.1704 41.9002 61.1704ZM41.9002 32.7704C38.4002 32.7704 35.0002 34.1704 32.5002 36.6704C30.0002 39.1704 28.7002 42.4704 28.7002 45.9704C28.7002 49.4704 30.1002 52.7704 32.6002 55.2704C35.1002 57.7704 38.4002 59.0704 41.9002 59.0704C45.4002 59.0704 48.8002 57.6704 51.3002 55.1704C56.4002 49.9704 56.4002 41.6704 51.2002 36.5704C48.7002 34.0704 45.4002 32.7704 41.9002 32.7704Z" fill="white"/>
<path d="M41.9002 32.7704C38.4002 32.7704 35.0002 34.1704 32.5002 36.6704C30.0002 39.1704 28.7002 42.4704 28.7002 45.9704C28.7002 49.4704 30.1002 52.7704 32.6002 55.2704C35.1002 57.7704 38.4002 59.0704 41.9002 59.0704C45.4002 59.0704 48.8002 57.6704 51.3002 55.1704C56.4002 49.9704 56.4002 41.6704 51.2002 36.5704C48.7002 34.0704 45.4002 32.7704 41.9002 32.7704Z" fill="#EC424A"/>
<path d="M19.9 70.2704H0V21.6703H21V27.0704H5.5V64.7704H19.9V70.2704Z" fill="white"/>
<path d="M63.8002 70.2704H83.7002V21.6703H62.7002V27.0704H78.2002V64.7704H63.8002V70.2704Z" fill="white"/>
<path d="M3 0.670349H0V16.1703H3V0.670349Z" fill="#EC424A"/>
<path d="M5.8999 0.670349V16.1703H13.9999V13.2703H8.8999V0.670349H5.8999Z" fill="#EC424A"/>
<path d="M22.5002 5.97036C22.5002 3.67036 21.4002 3.27036 20.3002 3.27036C19.3002 3.27036 18.2002 3.87036 18.2002 5.67036V11.1704C18.2002 12.9704 19.3002 13.5704 20.3002 13.5704C21.7002 13.5704 22.5002 12.8704 22.5002 10.6704V10.3704H25.5002C25.5002 14.3704 23.8002 16.3704 20.3002 16.3704C17.3002 16.3704 15.2002 14.1704 15.2002 10.9704V5.67036C15.2002 2.57036 17.3002 0.370361 20.3002 0.370361C23.7002 0.370361 25.5002 2.67036 25.5002 6.27036H22.5002V5.97036Z" fill="white"/>
<path d="M27.6001 0.670349V16.1703H36.3001V13.2703H30.7001V9.77035H34.8001V7.07035H30.7001V3.57035H36.3001V0.670349H27.6001Z" fill="white"/>
<path d="M38.5 0.670349V16.1703H41.5V7.17035L46 16.1703H48.9V0.670349H45.8V9.67035L41.3 0.670349H38.5Z" fill="white"/>
<path d="M50.6001 0.670349V3.57035H53.8001V16.1703H56.8001V3.57035H60.0001V0.670349H50.6001Z" fill="white"/>
<path d="M64.6001 3.57035V9.27035H66.1001C67.4001 9.27035 68.6001 8.67035 68.6001 6.67035V6.17035C68.6001 4.07035 67.4001 3.47035 66.1001 3.47035H64.6001V3.57035ZM61.6001 16.1703V0.670349H66.5001C69.6001 0.670349 71.6001 2.67035 71.6001 6.27035V6.67035C71.6001 9.07035 70.6001 10.6703 68.9001 11.3703L71.5001 16.0703H68.2001L66.1001 12.0703H64.5001V16.0703H61.6001V16.1703Z" fill="white"/>
<path d="M80.6999 11.1704V5.67036C80.6999 3.97036 79.6999 3.27036 78.4999 3.27036C77.3999 3.27036 76.3999 3.87036 76.3999 5.67036V11.1704C76.3999 12.8704 77.3999 13.4704 78.4999 13.4704C79.4999 13.4704 80.6999 12.8704 80.6999 11.1704ZM73.3999 11.0704V5.77036C73.3999 2.57036 75.4999 0.370361 78.4999 0.370361C81.4999 0.370361 83.6999 2.57036 83.6999 5.77036V11.0704C83.6999 14.1704 81.5999 16.3704 78.4999 16.3704C75.4999 16.3704 73.3999 14.1704 73.3999 11.0704Z" fill="white"/>
</g>
<defs>
<clipPath id="clip0">
<rect width="83.7" height="72" fill="white" transform="translate(0 0.370361)"/>
</clipPath>
</defs>
</svg>
