<svg width="488" height="108" viewBox="0 0 488 108" fill="none" xmlns="http://www.w3.org/2000/svg">
<path d="M95.8125 96.4609C95.4611 96.4019 94.9925 96.3428 94.6996 96.3428C93.5867 96.3428 92.708 97.3465 92.4737 97.6417C92.4737 97.9959 92.4151 99.8851 92.4151 102.07C92.4151 104.195 92.4737 106.497 92.5323 107.088C90.4822 107.088 87.0262 107.619 83.336 107.619C77.7713 107.619 67.8135 106.084 67.8135 93.8042C67.8135 87.2509 72.0309 80.6387 82.8088 80.6387C84.156 80.6387 85.3861 80.8158 86.6162 80.8748C87.8463 80.9929 89.0178 81.111 90.1893 81.111C91.1265 81.111 91.888 81.0519 92.6494 80.8748C92.5909 82.1737 92.5323 83.5315 92.5323 84.8304C92.5323 86.1292 92.5909 87.4871 92.6494 88.7859H91.1851C91.3022 88.2546 91.3022 87.7232 91.3022 87.1919C91.3022 85.4208 90.1893 83.8267 89.6621 83.4135C88.842 83.0002 86.9091 81.9966 82.633 81.9966C75.2525 81.9966 71.8552 87.4281 71.8552 93.6271C71.8552 101.184 76.3655 106.497 82.9259 106.497C85.8547 106.497 87.4362 105.73 88.7835 105.021C88.842 104.136 88.9592 102.66 88.9592 101.302C88.9592 99.5309 88.9006 97.8778 88.7835 97.5826C88.5492 97.3465 87.7877 96.3428 86.6162 96.3428C86.089 96.3428 85.7961 96.4019 85.4447 96.4609V95.103C87.2019 95.2211 88.7835 95.4572 90.6579 95.4572C92.5909 95.4572 94.1138 95.2211 95.8711 95.103V96.4609H95.8125Z" fill="white"/>
<path d="M96.8672 81.5833C98.5659 81.4061 101.963 80.5206 103.252 80.1073L103.486 80.2254C103.135 81.7604 102.783 87.0148 102.783 93.9222V97.8778C102.783 101.833 103.018 104.903 103.018 105.376C103.193 105.553 103.662 106.438 104.658 106.438C104.892 106.438 105.126 106.379 105.361 106.32V107.442C104.189 107.265 102.549 107.147 101.26 107.147C99.8545 107.147 98.5073 107.324 97.1015 107.442V106.32C97.3358 106.379 97.5701 106.438 97.7458 106.438C98.8002 106.438 99.3859 105.553 99.5031 105.376C99.5616 104.844 99.6788 102.129 99.6788 98.4682V93.568C99.6788 87.2509 99.5031 83.5906 99.4445 83.2363C99.2688 83.0592 98.9173 82.5279 98.0387 82.5279C97.5701 82.5279 97.2772 82.5869 97.0429 82.764L96.8672 81.5833Z" fill="white"/>
<path d="M107.059 90.8522C108.641 90.7932 112.038 89.7895 113.151 89.3763L113.327 89.6124C113.209 90.3799 112.975 93.686 112.975 97.8778C112.975 101.833 113.21 104.903 113.21 105.376C113.385 105.553 113.854 106.438 114.85 106.438C115.084 106.438 115.318 106.379 115.553 106.32V107.442C114.381 107.265 112.741 107.147 111.452 107.147C110.046 107.147 108.699 107.324 107.293 107.442V106.32C107.528 106.379 107.762 106.438 107.938 106.438C108.992 106.438 109.578 105.553 109.695 105.376C109.754 104.844 109.871 102.128 109.871 98.4681C109.871 94.9258 109.695 92.8005 109.695 92.4462C109.461 92.2691 109.285 91.7968 108.289 91.7968C107.821 91.7968 107.528 91.8559 107.235 92.033L107.059 90.8522ZM111.277 81.229C112.389 81.229 113.327 82.1736 113.327 83.2953C113.327 84.4171 112.389 85.3617 111.277 85.3617C110.164 85.3617 109.226 84.4171 109.226 83.2953C109.226 82.1146 110.105 81.229 111.277 81.229Z" fill="white"/>
<path d="M132.539 97.2282C132.539 100.121 133.359 105.73 138.221 105.73C141.032 105.73 142.438 104.077 142.79 101.892L143.785 102.187C143.375 105.139 140.271 107.619 136.991 107.619C132.832 107.619 129.024 104.49 129.024 98.7632C129.024 93.5679 132.129 89.6123 137.049 89.6123C141.97 89.6123 143.727 93.1546 143.727 95.9294C143.727 96.4607 143.668 96.874 143.61 97.2872H132.539V97.2282ZM140.564 96.3426V95.9294C140.564 92.8594 139.334 90.4979 136.874 90.4979C134.238 90.4979 132.715 93.3907 132.539 96.3426H140.564Z" fill="white"/>
<path d="M145.485 106.32C145.719 106.379 145.953 106.438 146.129 106.438C147.183 106.438 147.769 105.553 147.886 105.376C147.945 104.844 148.062 102.128 148.062 98.4681C148.062 94.9258 147.886 92.8005 147.886 92.4462C147.652 92.2691 147.476 91.7968 146.481 91.7968C146.012 91.7968 145.719 91.8559 145.426 92.033L145.192 90.9113C146.949 90.7932 150.054 90.0257 151.108 89.4353L151.284 89.6715V92.4462H151.342C152.28 90.7341 153.978 89.4353 155.384 89.4353C156.907 89.4353 157.61 90.3209 157.61 91.6197C157.61 92.6234 156.848 93.4499 155.794 93.4499C154.505 93.4499 153.978 92.5643 153.978 91.7968C153.978 91.6197 154.037 91.5016 154.037 91.3245C152.865 91.5016 151.869 92.6824 151.225 93.686C151.225 93.9812 151.049 96.8741 151.049 99.6489C151.049 102.837 151.108 105.258 151.167 105.553C151.342 105.73 151.811 106.497 153.275 106.497C153.627 106.497 153.92 106.438 154.154 106.379V107.501C152.69 107.324 151.225 107.206 149.526 107.206C148.121 107.206 146.773 107.383 145.368 107.501V106.32H145.485Z" fill="white"/>
<path d="M168.037 107.619C162.706 107.619 159.192 103.84 159.192 98.468C159.192 93.5088 162.706 89.6123 168.154 89.6123C172.489 89.6123 176.999 92.1509 176.999 98.468C177.057 103.191 173.601 107.619 168.037 107.619ZM168.154 90.4979C165.342 90.4979 162.824 92.8594 162.824 98.6451C162.824 102.305 164.639 106.733 168.095 106.733C171.376 106.733 173.367 103.368 173.367 98.1728C173.426 93.5679 171.434 90.4979 168.154 90.4979Z" fill="white"/>
<path d="M179.576 90.8522C181.157 90.7932 184.555 89.7895 185.668 89.3763L185.843 89.6124C185.726 90.3799 185.492 93.686 185.492 97.8778C185.492 101.833 185.726 104.903 185.726 105.376C185.902 105.553 186.37 106.438 187.366 106.438C187.601 106.438 187.835 106.379 188.069 106.32V107.442C186.898 107.265 185.257 107.147 183.969 107.147C182.563 107.147 181.216 107.324 179.81 107.442V106.32C180.044 106.379 180.279 106.438 180.454 106.438C181.509 106.438 182.094 105.553 182.212 105.376C182.27 104.844 182.387 102.128 182.387 98.4681C182.387 94.9258 182.212 92.8005 182.212 92.4462C181.977 92.2691 181.802 91.7968 180.806 91.7968C180.337 91.7968 180.044 91.8559 179.751 92.033L179.576 90.8522ZM183.793 81.229C184.906 81.229 185.843 82.1736 185.843 83.2953C185.843 84.4171 184.906 85.3617 183.793 85.3617C182.68 85.3617 181.743 84.4171 181.743 83.2953C181.743 82.1146 182.622 81.229 183.793 81.229Z" fill="white"/>
<path d="M214.487 104.667H214.428C213.784 105.73 211.792 107.619 208.922 107.619C205.29 107.619 201.483 104.372 201.483 98.3501C201.483 92.8005 204.88 89.5534 209.859 89.5534C211.792 89.5534 213.198 90.0847 214.487 90.6161C214.487 86.8376 214.311 83.5905 214.194 83.0592C214.077 82.9411 213.549 82.4688 212.847 82.4688C212.495 82.4688 212.026 82.5279 211.734 82.705L211.499 81.5833C213.257 81.5242 216.537 80.8158 217.884 80.1073L218.118 80.3435C217.943 81.5833 217.591 86.3063 217.591 94.6897C217.591 99.9441 217.591 104.608 217.65 105.08C217.884 105.258 218.177 105.553 218.763 105.553C219.173 105.553 219.583 105.494 219.817 105.317L220.051 106.438C218.587 106.497 216.068 107.206 214.838 107.914L214.487 107.796V104.667ZM214.487 92.7415C213.959 91.9149 212.554 90.498 210.269 90.498C206.52 90.498 204.997 94.5716 204.997 97.9368C204.997 102.778 207.926 105.907 210.562 105.907C212.319 105.907 213.667 104.785 214.487 103.782V92.7415Z" fill="white"/>
<path d="M226.143 97.2282C226.143 100.121 226.963 105.73 231.825 105.73C234.636 105.73 236.042 104.077 236.394 101.892L237.39 102.187C236.979 105.139 233.875 107.619 230.595 107.619C226.436 107.619 222.628 104.49 222.628 98.7632C222.628 93.5679 225.733 89.6123 230.653 89.6123C235.574 89.6123 237.331 93.1546 237.331 95.9294C237.331 96.4607 237.272 96.874 237.214 97.2872H226.143V97.2282ZM234.168 96.3426V95.9294C234.168 92.8594 232.938 90.4979 230.478 90.4979C227.842 90.4979 226.319 93.3907 226.143 96.3426H234.168Z" fill="white"/>
<path d="M238.913 81.5833C240.611 81.4061 244.009 80.5206 245.297 80.1073L245.532 80.2254C245.18 81.7604 244.829 87.0148 244.829 93.9222V97.8778C244.829 101.833 245.063 104.903 245.063 105.376C245.239 105.553 245.707 106.438 246.703 106.438C246.937 106.438 247.172 106.379 247.406 106.32V107.442C246.234 107.265 244.594 107.147 243.306 107.147C241.9 107.147 240.553 107.324 239.147 107.442V106.32C239.381 106.379 239.615 106.438 239.791 106.438C240.846 106.438 241.431 105.553 241.548 105.376C241.607 104.844 241.724 102.129 241.724 98.4682V93.568C241.724 87.2509 241.548 83.5906 241.49 83.2363C241.314 83.0592 240.963 82.5279 240.084 82.5279C239.615 82.5279 239.323 82.5869 239.088 82.764L238.913 81.5833Z" fill="white"/>
<path d="M284.132 99.7671C283.957 100.83 283.898 102.424 283.898 103.9C283.898 105.435 283.957 106.793 284.132 107.619C283.429 107.56 282.375 107.56 281.321 107.619C279.798 107.796 277.689 107.855 275.522 107.855C266.384 107.855 260.761 101.951 260.761 93.8632C260.761 87.1329 264.744 80.5206 275.405 80.5206C276.4 80.5206 277.396 80.5797 278.451 80.6387C279.446 80.6977 280.442 80.8158 281.438 80.8158C282.492 80.8158 283.371 80.7568 284.191 80.6387C284.015 81.8785 283.957 83.2364 283.957 84.7123C283.957 86.2473 284.015 87.5462 284.191 88.7269H282.961C282.961 84.0039 281.672 83.4725 281.262 82.9412C280.618 82.587 279.036 81.7604 275.697 81.7604C268.903 81.7604 264.861 86.1883 264.861 93.3909C264.861 101.42 270.133 106.852 276.576 106.852C278.978 106.852 280.794 105.907 281.145 105.73C281.379 105.494 282.961 103.9 282.961 101.361C282.961 100.712 282.902 100.239 282.844 99.708H284.132V99.7671Z" fill="white"/>
<path d="M296.258 107.619C290.928 107.619 287.413 103.84 287.413 98.468C287.413 93.5088 290.928 89.6123 296.375 89.6123C300.71 89.6123 305.22 92.1509 305.22 98.468C305.22 103.191 301.823 107.619 296.258 107.619ZM296.375 90.4979C293.563 90.4979 291.045 92.8594 291.045 98.6451C291.045 102.305 292.861 106.733 296.317 106.733C299.597 106.733 301.588 103.368 301.588 98.1728C301.588 93.5679 299.597 90.4979 296.375 90.4979Z" fill="white"/>
<path d="M307.738 81.5833C309.437 81.4061 312.834 80.5206 314.123 80.1073L314.357 80.2254C314.006 81.7604 313.654 87.0148 313.654 93.9222V97.8778C313.654 101.833 313.889 104.903 313.889 105.376C314.064 105.553 314.533 106.438 315.529 106.438C315.763 106.438 315.997 106.379 316.232 106.32V107.442C315.06 107.265 313.42 107.147 312.131 107.147C310.726 107.147 309.378 107.324 307.973 107.442V106.32C308.207 106.379 308.441 106.438 308.617 106.438C309.671 106.438 310.257 105.553 310.374 105.376C310.433 104.844 310.55 102.129 310.55 98.4682V93.568C310.55 87.2509 310.374 83.5906 310.316 83.2363C310.14 83.0592 309.788 82.5279 308.91 82.5279C308.441 82.5279 308.148 82.5869 307.914 82.764L307.738 81.5833Z" fill="white"/>
<path d="M327.596 107.619C322.265 107.619 318.751 103.84 318.751 98.468C318.751 93.5088 322.265 89.6123 327.713 89.6123C332.048 89.6123 336.558 92.1509 336.558 98.468C336.616 103.191 333.161 107.619 327.596 107.619ZM327.713 90.4979C324.901 90.4979 322.383 92.8594 322.383 98.6451C322.383 102.305 324.198 106.733 327.654 106.733C330.935 106.733 332.926 103.368 332.926 98.1728C332.926 93.5679 330.935 90.4979 327.713 90.4979Z" fill="white"/>
<path d="M341.361 101.361C341.302 101.597 341.244 101.892 341.244 102.247C341.244 104.372 343.06 106.615 345.637 106.615C347.863 106.615 349.151 105.198 349.151 103.368C349.151 98.8814 339.779 101.007 339.779 94.7487C339.779 90.9112 343.06 89.5533 345.988 89.5533C347.511 89.5533 348.39 89.7895 349.327 89.7895C350.03 89.7895 350.674 89.7305 351.26 89.5533C351.201 90.616 351.026 91.5016 351.026 92.8004C351.026 93.9222 351.201 94.9258 351.26 95.8114H350.03C350.089 95.4572 350.147 95.162 350.147 94.8077C350.147 92.2691 348.038 90.557 345.871 90.557C343.704 90.557 342.357 91.9739 342.357 93.627C342.357 98.4681 351.729 95.7524 351.729 102.365C351.729 105.553 349.503 107.619 345.52 107.619C344.758 107.619 344.055 107.56 343.528 107.442C343.001 107.383 342.474 107.265 342.005 107.265C341.361 107.265 340.775 107.324 340.248 107.383C340.306 106.32 340.482 105.317 340.482 104.313C340.482 103.309 340.306 102.306 340.248 101.302H341.361V101.361Z" fill="white"/>
<path d="M356.356 101.361C356.297 101.597 356.239 101.892 356.239 102.247C356.239 104.372 358.055 106.615 360.632 106.615C362.858 106.615 364.147 105.198 364.147 103.368C364.147 98.8814 354.774 101.007 354.774 94.7487C354.774 90.9112 358.055 89.5533 360.983 89.5533C362.506 89.5533 363.385 89.7895 364.322 89.7895C365.025 89.7895 365.669 89.7305 366.255 89.5533C366.197 90.616 366.021 91.5016 366.021 92.8004C366.021 93.9222 366.197 94.9258 366.255 95.8114H365.025C365.084 95.4572 365.142 95.162 365.142 94.8077C365.142 92.2691 363.034 90.557 360.866 90.557C358.699 90.557 357.352 91.9739 357.352 93.627C357.352 98.4681 366.724 95.7524 366.724 102.365C366.724 105.553 364.498 107.619 360.515 107.619C359.753 107.619 359.05 107.56 358.523 107.442C357.996 107.383 357.469 107.265 357 107.265C356.356 107.265 355.77 107.324 355.243 107.383C355.302 106.32 355.477 105.317 355.477 104.313C355.477 103.309 355.302 102.306 355.243 101.302H356.356V101.361Z" fill="white"/>
<path d="M373.402 97.2282C373.402 100.121 374.222 105.73 379.084 105.73C381.895 105.73 383.301 104.077 383.652 101.892L384.648 102.187C384.238 105.139 381.134 107.619 377.854 107.619C373.695 107.619 369.887 104.49 369.887 98.7632C369.887 93.5679 372.992 89.6123 377.912 89.6123C382.832 89.6123 384.59 93.1546 384.59 95.9294C384.59 96.4607 384.531 96.874 384.473 97.2872H373.402V97.2282ZM381.427 96.3426V95.9294C381.427 92.8594 380.197 90.4979 377.736 90.4979C375.1 90.4979 373.577 93.3907 373.402 96.3426H381.427Z" fill="white"/>
<path d="M395.777 107.619C390.447 107.619 386.933 103.84 386.933 98.468C386.933 93.5088 390.447 89.6123 395.895 89.6123C400.229 89.6123 404.74 92.1509 404.74 98.468C404.74 103.191 401.342 107.619 395.777 107.619ZM395.895 90.4979C393.083 90.4979 390.564 92.8594 390.564 98.6451C390.564 102.305 392.38 106.733 395.836 106.733C399.116 106.733 401.108 103.368 401.108 98.1728C401.108 93.5679 399.116 90.4979 395.895 90.4979Z" fill="white"/>
<path d="M410.773 102.896C412.003 102.896 412.999 103.9 412.999 105.14C412.999 106.379 412.003 107.383 410.773 107.383C409.543 107.383 408.547 106.379 408.547 105.14C408.547 103.9 409.543 102.896 410.773 102.896Z" fill="white"/>
<path d="M0.410028 48.2281C0.878632 48.3462 1.58154 48.4643 2.10872 48.4643C5.21321 48.4643 6.15042 46.1618 6.32615 45.9256C6.38472 45.0991 6.85333 36.1253 6.85333 26.2069C6.85333 14.3993 6.61903 7.78702 6.56045 7.01953C6.32615 6.72434 5.27179 4.06762 1.75726 4.06762C1.17151 4.06762 0.64433 4.12666 0 4.24474V1.76514C3.39738 2.06033 6.85333 2.35552 10.2507 2.35552C13.6481 2.35552 17.104 2.06033 20.5014 1.76514V4.24474C19.9742 4.12666 19.2127 4.00859 18.5684 4.00859C15.7568 4.00859 14.4096 6.193 14.1753 6.60626C14.1167 7.31472 13.2381 14.3403 13.2381 26.0888C13.2381 36.0072 13.5309 44.922 13.6481 45.8076C13.7652 46.1028 15.1125 48.3462 17.8069 48.3462C18.5684 48.3462 19.0956 48.2872 19.5056 48.1101V50.5897C16.6354 50.2945 12.9452 50.0583 9.95783 50.0583C6.73618 50.0583 3.5731 50.3535 0.410028 50.5897V48.2281Z" fill="white"/>
<path d="M97.9969 30.3985C97.3526 30.2804 96.4739 30.1623 95.8882 30.1623C93.7795 30.1623 92.1979 32.0516 91.7293 32.5829C91.7293 33.2323 91.6122 36.7156 91.6122 40.8482C91.6122 44.8628 91.6707 49.0545 91.8465 50.1763C88.0976 50.1763 81.5958 51.1209 74.7424 51.1209C64.4332 51.1209 45.8647 48.228 45.8647 25.4983C45.8647 13.2774 53.7139 1.1156 73.6881 1.1156C76.1483 1.1156 78.4913 1.41079 80.7171 1.58791C82.943 1.76502 85.1689 2.00117 87.3362 2.00117C89.0349 2.00117 90.4992 1.8831 91.905 1.58791C91.8465 4.00847 91.6707 6.48807 91.6707 8.90863C91.6707 11.3292 91.7879 13.8088 91.905 16.2294H89.4449C89.6792 15.2847 89.6792 14.2221 89.6792 13.2775C89.6792 10.0304 87.5705 7.01941 86.5747 6.25192C84.9931 5.48442 81.42 3.65424 73.5124 3.65424C59.7471 3.65424 53.4796 13.6907 53.4796 25.2031C53.4796 39.1952 61.7973 49.1136 74.0395 49.1136C79.4871 49.1136 82.4744 47.7557 84.9346 46.3978C85.0517 44.7448 85.2274 42.029 85.2274 39.4904C85.2274 36.1842 85.1103 33.1733 84.9346 32.5239C84.466 32.0516 83.0602 30.1623 80.8929 30.1623C79.8385 30.1623 79.3113 30.2214 78.7256 30.3985V27.9189C81.9472 28.1551 84.876 28.5683 88.3905 28.5683C92.0222 28.5683 94.8338 28.1551 98.0555 27.9189V30.3985H97.9969Z" fill="white"/>
<path d="M135.661 36.0072C135.368 38.4868 135.251 40.9074 135.251 43.387C135.251 45.8666 135.368 48.2872 135.661 50.7077C129.862 50.4125 124.063 50.1764 118.147 50.1764C112.348 50.1764 106.608 50.4716 100.809 50.7077V48.2281C101.278 48.3462 101.98 48.4643 102.508 48.4643C105.612 48.4643 106.549 46.1618 106.725 45.9256C106.784 45.0991 107.252 36.1253 107.252 26.2069C107.252 14.3993 107.018 7.78702 106.959 7.01953C106.725 6.72434 105.671 4.06762 102.156 4.06762C101.453 4.06762 100.926 4.12666 100.282 4.30378V1.76514C103.679 2.06033 107.135 2.29648 110.532 2.29648C113.93 2.29648 117.386 2.00129 120.783 1.76514V4.24474C120.256 4.12666 119.494 4.00859 118.85 4.00859C116.039 4.00859 114.691 6.193 114.457 6.60626C114.398 7.31472 113.52 14.3403 113.52 26.0888C113.52 37.9555 113.871 45.1582 114.047 46.2208C114.691 46.516 117.737 47.7558 121.135 47.7558C124.298 47.7558 128.808 47.2835 129.277 46.9883C130.038 46.1618 133.26 43.387 133.26 38.3688C133.26 37.5422 133.201 36.7747 132.967 35.9482H135.661V36.0072Z" fill="white"/>
<path d="M151.418 31.4021C150.656 33.9408 147.727 43.8001 147.727 45.9846C147.845 46.3978 149.426 48.4051 152.062 48.4051C152.706 48.4051 153.116 48.3461 153.526 48.169V50.6486C151.183 50.3534 148.137 50.1172 145.794 50.1172C143.217 50.1172 140.64 50.4124 138.062 50.6486V48.169C138.355 48.287 138.59 48.4051 138.883 48.4051C140.523 48.4051 142.866 47.9328 145.267 40.494C149.836 26.62 154.288 14.3992 157.275 6.60612C156.865 5.9567 155.167 3.71325 152.413 3.71325C151.886 3.71325 151.359 3.83133 150.891 4.12652V1.41077C153.234 1.765 155.459 2.06019 157.802 2.06019C160.145 2.06019 162.371 1.765 164.714 1.41077C165.886 5.13017 171.333 20.6572 176.019 34.7083C178.772 42.9736 180.53 48.4051 184.044 48.4051C184.396 48.4051 184.806 48.3461 185.157 48.169V50.6486C182.17 50.3534 178.714 50.1172 175.727 50.1172C172.563 50.1172 169.459 50.4124 166.296 50.6486V48.169C166.706 48.287 167.057 48.4051 167.585 48.4051C169.986 48.4051 171.685 46.634 172.153 45.9255C172.446 45.3942 169.576 36.7156 167.936 31.4021H151.418ZM167.116 28.9225C164.597 22.1922 161.961 15.4028 159.091 8.79053H158.974C156.514 15.4028 153.819 22.0741 152.062 28.9225H167.116Z" fill="white"/>
<path d="M188.144 48.228C188.613 48.3461 189.316 48.4641 189.843 48.4641C192.948 48.4641 193.885 46.1617 194.06 45.9255C194.119 45.099 194.588 36.1252 194.588 26.2068C194.588 14.3992 194.353 7.78688 194.295 7.01939C194.061 6.7242 193.006 3.89037 189.492 4.06748C188.73 4.06748 188.144 4.18556 187.617 4.30363V1.765C189.316 1.88307 191.015 2.06019 192.772 2.11922C194.471 2.2373 196.169 2.35538 197.926 2.35538C200.504 2.35538 203.14 2.06019 205.717 1.88307C208.294 1.58788 210.93 1.41077 213.508 1.41077C232.545 1.41077 240.511 11.2701 240.511 25.026C240.511 41.7928 229.323 50.7076 215.499 50.7076C209.524 50.7076 203.608 50.1763 197.634 50.1763C194.412 50.1763 191.249 50.4714 188.086 50.7076V48.228H188.144ZM212.16 3.83133C206.83 3.83133 202.905 5.4844 201.851 6.25189C201.148 13.3955 201.031 20.7753 201.031 28.037C201.031 31.0479 201.031 43.4459 201.558 46.2207C203.315 47.4015 207.943 48.8184 213.566 48.8184C226.921 48.8184 232.896 38.9 232.896 26.2068C232.955 12.2738 225.691 3.83133 212.16 3.83133Z" fill="white"/>
<path d="M246.076 48.2281C246.544 48.3462 247.247 48.4643 247.774 48.4643C250.879 48.4643 251.816 46.1618 251.992 45.9256C252.05 45.0991 252.519 36.1253 252.519 26.2069C252.519 14.3993 252.285 7.78702 252.226 7.01953C251.992 6.72434 250.937 4.06762 247.423 4.06762C246.72 4.06762 246.193 4.12666 245.548 4.30378V1.76514C248.946 2.06033 252.402 2.29648 255.799 2.29648C259.196 2.29648 262.652 2.00129 266.05 1.76514V4.24474C265.523 4.12666 264.761 4.00859 264.117 4.00859C261.305 4.00859 259.958 6.193 259.724 6.60626C259.665 7.31472 258.786 14.3403 258.786 26.0888C258.786 36.0072 259.079 44.922 259.196 45.8076C259.314 46.1028 260.661 48.3462 263.355 48.3462C264.117 48.3462 264.644 48.2872 265.054 48.1101V50.5897C262.184 50.2945 258.494 50.0583 255.506 50.0583C252.285 50.0583 249.121 50.3535 245.958 50.5897V48.2281H246.076Z" fill="white"/>
<path d="M281.924 31.4021C281.163 33.9408 278.234 43.8001 278.234 45.9846C278.351 46.3978 279.932 48.4051 282.568 48.4051C283.213 48.4051 283.623 48.3461 284.033 48.169V50.6486C281.69 50.3534 278.644 50.1172 276.301 50.1172C273.723 50.1172 271.146 50.4124 268.569 50.6486V48.169C268.862 48.287 269.096 48.4051 269.389 48.4051C271.029 48.4051 273.372 47.9328 275.774 40.494C280.343 26.62 284.794 14.3992 287.782 6.60612C287.372 5.9567 285.673 3.71325 282.92 3.71325C282.393 3.71325 281.865 3.83133 281.397 4.12652V1.41077C283.74 1.765 285.966 2.06019 288.309 2.06019C290.652 2.06019 292.878 1.765 295.221 1.41077C296.392 5.13017 301.84 20.6572 306.526 34.7083C309.279 42.9736 311.036 48.4051 314.551 48.4051C314.902 48.4051 315.312 48.3461 315.664 48.169V50.6486C312.676 50.3534 309.22 50.1172 306.233 50.1172C303.07 50.1172 299.965 50.4124 296.802 50.6486V48.169C297.212 48.287 297.564 48.4051 298.091 48.4051C300.492 48.4051 302.191 46.634 302.66 45.9255C302.953 45.3942 300.082 36.7156 298.442 31.4021H281.924ZM297.564 28.9225C295.045 22.1922 292.409 15.4028 289.539 8.79053H289.422C286.962 15.4028 284.267 22.0741 282.51 28.9225H297.564Z" fill="white"/>
<path d="M326.266 48.2281C326.793 48.3462 327.32 48.4643 327.906 48.4643C331.538 48.4643 332.943 46.2799 333.353 45.9256C333.353 45.2172 333.822 39.7266 333.822 27.86C333.822 12.7462 333.412 6.78338 333.178 6.31107C332.651 5.95684 331.186 4.77608 327.437 4.77608C324.157 4.77608 322.166 5.48454 321.638 5.72069C321.287 6.07492 318.124 9.49913 318.124 13.6908C318.124 15.0487 318.182 16.2295 318.358 16.997H315.898C316.191 14.8716 316.308 12.392 316.308 9.55817C316.308 6.84241 316.191 4.1857 315.898 1.76514C320.408 2.06033 329.253 2.29648 337.161 2.29648C346.826 2.29648 353.796 2.00129 358.072 1.76514C357.897 3.65436 357.662 6.25203 357.662 9.55817C357.662 12.7462 357.897 14.8716 358.072 16.997H355.612C355.729 16.0524 355.846 14.8716 355.846 13.6908C355.846 10.0305 353.093 6.42915 352.566 5.72069C352.215 5.60261 349.989 4.77608 347.294 4.77608C343.721 4.77608 341.495 6.13396 341.027 6.42915C340.734 7.07857 340.207 15.7572 340.207 27.86C340.207 37.3651 340.5 45.0401 340.675 45.8666C340.968 46.3389 342.55 48.4643 345.596 48.4643C346.299 48.4643 347.06 48.4052 347.704 48.2281V50.7077C344.19 50.4125 340.617 50.1764 336.985 50.1764C333.412 50.1764 329.78 50.4716 326.266 50.7077V48.2281Z" fill="white"/>
<path d="M386.129 0.879517C403.995 0.879517 411.785 12.9233 411.785 25.2032C411.785 37.4831 402.706 51.5933 386.129 51.5933C372.071 51.5933 360.063 41.7929 360.063 25.6755C360.063 11.1521 370.431 0.879517 386.129 0.879517ZM386.129 49.3498C394.447 49.3498 404.112 42.6195 404.112 25.6165C404.112 13.7498 397.258 3.12296 386.129 3.12296C374.707 3.12296 367.736 12.7462 367.736 25.6165C367.736 41.5568 376.816 49.3498 386.129 49.3498Z" fill="white"/>
<path d="M417.526 48.2281C417.994 48.3461 418.697 48.4642 419.224 48.4642C422.329 48.4642 423.266 46.1617 423.442 45.9256C423.5 45.099 423.969 36.1253 423.969 26.2069C423.969 14.3992 423.793 7.78696 423.676 7.01946C423.442 6.72427 422.387 4.06756 418.873 4.06756C418.17 4.06756 417.643 4.1266 416.999 4.30371V1.76507C418.287 1.88315 419.869 2.06026 421.86 2.17834C423.852 2.23738 425.551 2.29642 427.249 2.29642C429.182 2.29642 431.174 2.00123 433.107 1.82411C435.098 1.52892 437.207 1.35181 438.906 1.35181C447.985 1.35181 453.901 6.72427 453.901 13.7498C453.901 20.244 449.449 25.2622 446.169 27.3876L451.499 36.4795C455.483 42.9146 458.938 48.4052 462.863 48.4052C463.332 48.4052 463.742 48.3461 464.152 48.169V50.6486C462.629 50.3534 460.169 50.1173 458.353 50.1173C456.42 50.1173 454.428 50.4125 452.554 50.6486C448.571 46.0437 443.24 36.0662 439.609 28.9816C438.437 29.2178 436.621 29.2768 435.157 29.2768C433.575 29.2768 431.877 29.1588 430.237 28.9816V35.0035C430.237 40.7302 430.764 45.8665 430.998 46.2798C431.349 46.6931 432.931 48.3461 435.333 48.3461C435.86 48.3461 436.387 48.2871 436.914 48.11V50.5896C433.985 50.2944 430.412 50.0582 427.366 50.0582C424.145 50.0582 420.982 50.3534 417.467 50.5896V48.2281H417.526ZM430.412 25.7345C431.115 26.1478 434.571 27.2695 437.207 27.2695C439.667 27.2695 441.659 26.9153 442.127 26.5611C442.42 26.2659 446.696 21.3067 446.696 14.5173C446.696 8.20023 443.123 3.65429 436.738 3.65429C433.575 3.65429 431.818 5.30736 431.525 5.66159C431.408 6.19293 430.412 11.9196 430.412 19.9488V25.7345Z" fill="white"/>
<path d="M467.901 48.2281C468.369 48.3462 469.072 48.4643 469.599 48.4643C472.704 48.4643 473.641 46.1618 473.817 45.9256C473.875 45.0991 474.344 36.1253 474.344 26.2069C474.344 14.3993 474.168 7.78702 474.051 7.01953C473.875 6.72434 472.762 4.06762 469.248 4.06762C468.545 4.06762 468.018 4.12666 467.374 4.30378V1.76514C470.771 2.06033 474.227 2.29648 477.624 2.29648C481.022 2.29648 484.478 2.00129 487.875 1.76514V4.24474C487.348 4.12666 486.586 4.00859 485.942 4.00859C483.13 4.00859 481.783 6.193 481.549 6.60626C481.49 7.31472 480.612 14.3403 480.612 26.0888C480.612 36.0072 480.904 44.922 481.022 45.8076C481.139 46.1028 482.486 48.3462 485.18 48.3462C485.942 48.3462 486.469 48.2872 486.879 48.1101V50.5897C484.009 50.2945 480.319 50.0583 477.331 50.0583C474.11 50.0583 470.947 50.3535 467.784 50.5897V48.2281H467.901Z" fill="white"/>
</svg>
