<svg fill="none" height="66" viewBox="0 0 146 66" width="146" xmlns="http://www.w3.org/2000/svg"><g fill="#fff"><path d="m0 .555542v64.814858h12.8145v-20.9833c0-2.5179 2.2025-4.5696 4.9056-4.5696 2.703 0 4.9055 2.0517 4.9055 4.5696v20.9833h7.7087v-20.9833c0-2.5179 2.2025-4.5696 4.9056-4.5696s4.9055 2.0517 4.9055 4.5696v20.9833h7.5085v-20.9833c0-2.5179 2.2025-4.5696 4.9056-4.5696s4.9056 2.0517 4.9056 4.5696v20.9833h12.414v-64.814858z"/><path d="m93.8575 51.1018h-.4005v.8394h.4005c.3003 0 .4005-.0933.4005-.3731s-.1002-.4663-.4005-.4663z"/><path d="m91.0544 14.9175v-2.518c0-.4663-.2002-.6528-.7008-.6528h-.7008v3.8236h.7008c.5006 0 .7008-.1865.7008-.6528z"/><path d="m98.5635 53.0603h.5005l-.3003-1.1191z"/><path d="m107.373 53.0603h.6l-.3-1.1191z"/><path d="m124.292 53.0603h.601l-.301-1.1191z"/><path d="m134.103 29.186c0-1.5854-.901-2.4248-2.603-2.4248h-2.603v4.7562h2.603c1.702.0933 2.603-.746 2.603-2.3314z"/><path d="m105.571 12.9591-.5 1.6786h1.001z"/><path d="m75.8364.555542v64.814858h69.6786v-64.814858zm58.6666 9.885458h4.105v1.3056h-1.402v5.1292h-1.402v-5.1292h-1.401v-1.3056zm-5.506 0h1.401l1.502 3.3573v-3.3573h1.402v6.4348h-1.402l-1.502-3.3573v3.3573h-1.401zm-5.306 0h4.104v1.3056h-2.703v1.3056h2.203v1.3056h-2.203v1.3057h2.703v1.3056h-4.104zm-6.708 0h1.602l1.201 4.2899 1.202-4.2899h1.601v6.4348h-1.401v-2.518l-.901 2.518h-1.101l-.901-2.518v2.518h-1.402v-6.4348zm-5.506 0h1.401l1.502 3.3573v-3.3573h1.402v6.4348h-1.402l-1.502-3.3573v3.3573h-1.401zm-2.503 0h1.402v6.4348h-1.402zm-5.907 6.3416 1.802-6.3416h1.402l1.802 6.3416h-1.402l-.3-.9326h-1.602l-.3.9326zm-4.2045-6.3416h4.1045v1.3056h-1.401v5.1292h-1.402v-5.1292h-1.4016v-1.3056zm-5.306 0h1.4016v4.4764c0 .4663.2002.6528.7008.6528s.7008-.1865.7008-.6528v-4.4764h1.3015v4.4764c0 1.3056-.7008 1.9584-2.1024 1.9584s-2.1024-.6528-2.1024-1.9584v-4.4764zm-5.306 0h2.1024c1.4016 0 2.1024.6528 2.1024 1.9584v2.518c0 1.3056-.7008 1.9584-2.1024 1.9584h-2.1024zm-5.2059 0h4.1046v1.3056h-2.703v1.3056h2.2025v1.3056h-2.2025v1.3057h2.703v1.3056h-4.1046zm2.7031 41.1271h-.9011v-.0933c0-.2798-.1001-.373-.4004-.373-.3004 0-.4005.0932-.4005.373v1.6787c0 .2797.1001.373.4005.373.3003 0 .4004-.0933.4004-.373v-.3731h-.5005v-.8393h1.5017v1.3056c0 .8393-.5006 1.3056-1.4016 1.3056s-1.4016-.4663-1.4016-1.3056v-1.6786c0-.8394.5006-1.3057 1.4016-1.3057.901-.0932 1.3015.3731 1.3015 1.3057zm4.0045 2.9842-.2002-.6528h-1.1013l-.2002.6528h-1.0011v-.0932l1.2013-4.2899h1.0012l1.2013 4.2899h-.901zm4.7053 0-.5005-1.7719h-.1002-.4004v1.6787h-.901v-4.2899h1.4016c.901 0 1.4015.4663 1.4015 1.3056 0 .4663-.1001.7461-.4004 1.0258l.6007 2.0517zm5.0057 0-.2002-.6528h-1.1013l-.2002.6528h-1.0011v-.0932l1.2013-4.2899h1.0012l1.2011 4.2899h-.9008zm5.4058-4.2899-1.201 4.2899h-1.001l-1.202-4.2899h1.002l.7 2.518.701-2.518zm3.504 4.2899-.2-.6528h-1.101l-.2.6528h-1.002v-.0932l1.202-4.2899h1.001l1.201 4.2899h-.901zm5.306-2.9842h-1.001v-.0933c0-.2798-.1-.373-.4-.373-.301 0-.401.0932-.401.373v1.6787c0 .2797.1.373.401.373.3 0 .4-.0933.4-.373v-.3731h-.5v-.8393h1.501v1.3056c0 .8393-.5 1.3056-1.401 1.3056s-1.402-.4663-1.402-1.3056v-1.6786c0-.8394.501-1.3057 1.402-1.3057.901-.0932 1.401.3731 1.401 1.3057zm4.706 2.9842h-2.804v-4.2899h.901v3.4506h1.803v.8393zm2.803 0h-.901v-4.2899h.901zm4.104 0-.2-.6528h-1.101l-.2.6528h-1.001v-.0932l1.201-4.2899h1.001l1.201 4.2899h-.901zm3.705 0h-.901v-.8393h.901zm4.705-3.4505h-1.802v.8393h1.502v.8393h-1.502v.8394h1.802v.8393h-2.803v-4.2899h2.803zm4.605 2.1449c0 .8393-.5 1.3056-1.401 1.3056s-1.402-.4663-1.402-1.3056v-2.9843h.901v2.9843c0 .2798.1.3731.401.3731.3 0 .4-.0933.4-.3731v-2.9843h.901v2.9843zm.301-6.4348h-55.6635v-.5596h55.6635zm-46.7534-15.2012v-8.2068h3.7042v19.8641h-3.7042v-8.2067h-5.2059v8.2067h-3.7042v-19.8641h3.7042v8.2068zm5.9067 1.1191c0-1.0258.901-1.8652 2.0022-1.8652 1.1015 0 2.0025.8394 2.0025 1.8652s-.901 1.8652-2.0025 1.8652c-1.1012 0-2.0022-.9326-2.0022-1.8652zm12.6147 7.0877c1.701 0 2.603-.8394 2.603-2.4248v-13.9888h3.704v13.9888c0 3.9169-2.003 5.7821-6.207 5.7821-4.205 0-6.207-1.8652-6.207-5.7821v-13.9888h3.704v13.9888c-.2 1.5854.701 2.4248 2.403 2.4248zm8.81-7.0877c0-1.0258.901-1.8652 2.002-1.8652s2.002.8394 2.002 1.8652-.901 1.8652-2.002 1.8652-2.002-.9326-2.002-1.8652zm17.72.1865c1.101.9326 1.601 2.4247 1.601 4.4764 0 3.9169-2.002 5.7821-6.207 5.7821h-7.008v-19.7709h6.207c4.205 0 6.208 1.8652 6.208 5.7821 0 1.4921-.301 2.6112-.901 3.5438zm1.702-12.5899h-55.6635v-.5596h55.6635z"/><path d="m88.752 53.0603h.6006l-.3003-1.1191z"/><path d="m132.301 34.9683h-3.404v4.7561h3.404c1.702 0 2.603-.8393 2.603-2.4247 0-1.4921-.901-2.3314-2.603-2.3314z"/></g></svg>